<svg width="182" height="64" viewBox="0 0 182 64" fill="none" xmlns="http://www.w3.org/2000/svg">
<path d="M43.2084 22.0288C40.1119 22.0288 37.5166 23.0304 35.4802 25.008L35.8207 23.0912C35.8399 22.9856 35.811 22.8768 35.7404 22.7968C35.6697 22.7136 35.5701 22.6688 35.4609 22.6688H30.145C29.9683 22.6688 29.8174 22.7936 29.7885 22.9664L25.4297 47.4912C25.4104 47.5968 25.4394 47.7056 25.51 47.7856C25.5807 47.8688 25.6803 47.9136 25.7895 47.9136H31.1054C31.2821 47.9136 31.433 47.7888 31.4619 47.616L33.8003 34.4704C34.5648 30.1728 37.1697 27.7056 40.9503 27.7056C42.4985 27.7056 43.6934 28.1536 44.4064 28.9984C45.1613 29.8944 45.399 31.2672 45.097 32.9696L42.5178 47.488C42.4985 47.5936 42.5274 47.7024 42.5981 47.7824C42.6687 47.8656 42.7683 47.9104 42.8775 47.9104H48.1967C48.3733 47.9104 48.5243 47.7856 48.5532 47.6128L51.2288 32.5536C51.8134 29.2672 51.2834 26.5312 49.6999 24.6464C48.2545 22.9312 46.0125 22.0224 43.2148 22.0224L43.2084 22.0288ZM22.8504 19.9712C23.8333 19.9712 24.7648 19.5808 25.4779 18.8704C26.2102 18.1408 26.6182 17.2 26.6246 16.2208C26.631 15.2448 26.2424 14.3136 25.5325 13.6064C24.8194 12.8704 23.8719 12.4672 22.8569 12.4672C21.8419 12.4672 20.8943 12.8736 20.1877 13.6032C18.7069 15.0784 18.7037 17.3408 20.1909 18.8768C20.9264 19.584 21.8708 19.9712 22.8504 19.9712ZM24.5014 22.6688H19.1855C19.0089 22.6688 18.8579 22.7936 18.829 22.9664L14.4702 47.4912C14.451 47.5968 14.4799 47.7056 14.5505 47.7856C14.6212 47.8688 14.7208 47.9136 14.83 47.9136H20.1459C20.3226 47.9136 20.4735 47.7888 20.5024 47.616L24.8612 23.0912C24.8805 22.9856 24.8515 22.8768 24.7809 22.7968C24.7102 22.7136 24.6106 22.6688 24.5014 22.6688ZM85.1737 22.032C81.7303 22.032 78.9584 23.1936 76.9219 25.488V13.2192C76.9219 13.0176 76.7581 12.8576 76.559 12.8576H71.2398C71.0375 12.8576 70.8769 13.0208 70.8769 13.2192V47.5552C70.8769 47.7568 71.0407 47.9168 71.2398 47.9168H76.559C76.7613 47.9168 76.9219 47.7536 76.9219 47.5552V45.0624C78.9487 47.3792 81.7207 48.5536 85.1737 48.5536C88.6266 48.5536 91.6106 47.2992 94.1031 44.7136C96.5539 42.1728 97.797 39.0016 97.797 35.2896C97.797 31.5776 96.5539 28.4096 94.1031 25.8656C91.6106 23.2832 88.6908 22.0256 85.1737 22.0256V22.032ZM89.6448 40.6816C88.2444 42.0768 86.4585 42.784 84.3385 42.784C82.2186 42.784 80.4295 42.0768 79.0354 40.688C77.6125 39.2256 76.9219 37.4624 76.9219 35.2992C76.9219 33.136 77.6318 31.3568 79.0354 29.9584C80.4198 28.5344 82.2025 27.8112 84.3385 27.8112C86.4745 27.8112 88.2572 28.5344 89.6448 29.9616C91.0453 31.3568 91.7551 33.152 91.7551 35.2992C91.7551 37.4464 91.0645 39.2256 89.6448 40.6848V40.6816ZM126.978 22.672H121.662C121.46 22.672 121.299 22.8352 121.299 23.0336V25.488C119.263 23.1936 116.491 22.032 113.048 22.032C109.604 22.032 106.611 23.2864 104.121 25.872C101.667 28.416 100.424 31.584 100.424 35.296C100.424 39.008 101.667 42.176 104.121 44.72C106.614 47.3024 109.534 48.56 113.048 48.56C116.562 48.56 119.273 47.3856 121.299 45.0688V47.5616C121.299 47.7632 121.463 47.9232 121.662 47.9232H126.978C127.181 47.9232 127.341 47.76 127.341 47.5616V23.0304C127.341 22.8288 127.178 22.6688 126.978 22.6688V22.672ZM119.189 40.6816C117.789 42.0768 116.003 42.784 113.883 42.784C111.763 42.784 109.974 42.0768 108.58 40.688C107.157 39.2256 106.466 37.4624 106.466 35.2992C106.466 33.136 107.176 31.3568 108.58 29.9584C109.964 28.5344 111.747 27.8112 113.883 27.8112C116.019 27.8112 117.802 28.5344 119.189 29.9616C120.59 31.3568 121.299 33.152 121.299 35.2992C121.299 37.4464 120.609 39.2256 119.189 40.6848V40.6816ZM145.383 22.032C142.255 22.032 139.814 23.0528 138.115 25.072V23.0336C138.115 22.832 137.951 22.672 137.752 22.672H132.436C132.233 22.672 132.073 22.8352 132.073 23.0336V47.5584C132.073 47.76 132.236 47.92 132.436 47.92H137.752C137.954 47.92 138.115 47.7568 138.115 47.5584V34.4128C138.115 30.0928 140.206 27.712 144.005 27.712C147.278 27.712 149.157 29.6544 149.157 33.04V47.5584C149.157 47.76 149.321 47.92 149.52 47.92H154.84C155.042 47.92 155.203 47.7568 155.203 47.5584V32.4992C155.203 26.1408 151.348 22.032 145.387 22.032H145.383ZM32.1204 0C19.465 0 11.9616 2.096 7.03115 7.0048C2.10067 11.9168 0 19.3888 0 32C0 44.6112 2.10388 52.0832 7.03115 56.9952C11.9616 61.9072 19.4617 64 32.1204 64C44.779 64 52.2792 61.904 57.2096 56.9952C62.1401 52.0864 64.2408 44.6112 64.2408 32C64.2408 19.3888 62.1369 11.9168 57.2096 7.0048C52.2792 2.096 44.779 0 32.1204 0ZM52.9344 52.736C49.2952 56.3616 42.8775 57.9776 32.1204 57.9776C21.3633 57.9776 14.9456 56.3616 11.3064 52.736C7.66714 49.1104 6.04506 42.7168 6.04506 32C6.04506 21.2832 7.66714 14.8896 11.3064 11.264C14.9456 7.6384 21.3633 6.0224 32.1204 6.0224C42.8775 6.0224 49.2952 7.6384 52.9344 11.264C56.5737 14.8896 58.1957 21.2832 58.1957 32C58.1957 42.7168 56.5737 49.1104 52.9344 52.736ZM181.904 47.3152L170.897 35.0496L181.512 23.2736C181.609 23.168 181.631 23.0144 181.573 22.8832C181.516 22.752 181.384 22.6688 181.243 22.6688H174.745C174.639 22.6688 174.539 22.7136 174.472 22.7936L165.555 32.912V13.2192C165.555 13.0176 165.391 12.8576 165.192 12.8576H159.876C159.674 12.8576 159.513 13.0208 159.513 13.2192V47.5552C159.513 47.7568 159.677 47.9168 159.876 47.9168H165.192C165.394 47.9168 165.555 47.7536 165.555 47.5552V37.1776L175.014 47.7952C175.082 47.872 175.181 47.9168 175.287 47.9168H181.638C181.782 47.9168 181.911 47.8336 181.968 47.7024C182.026 47.5712 182.004 47.4208 181.907 47.312L181.904 47.3152Z" fill="#21093A"/>
</svg>
